<?xml version="1.0" encoding="iso-8859-1"?>
<!-- Generator: Adobe Illustrator 19.0.0, SVG Export Plug-In . SVG Version: 6.00 Build 0)  -->
<svg version="1.1" id="Capa_1" xmlns="http://www.w3.org/2000/svg" xmlns:xlink="http://www.w3.org/1999/xlink" x="0px" y="0px"
	 viewBox="0 0 512 512" style="enable-background:new 0 0 512 512;" xml:space="preserve">
<g>
	<g>
		<circle cx="34" cy="68" r="8"/>
	</g>
</g>
<g>
	<g>
		<circle cx="67" cy="68" r="8"/>
	</g>
</g>
<g>
	<g>
		<circle cx="100" cy="68" r="8"/>
	</g>
</g>
<g>
	<g>
		<path d="M499.238,116H351V54.783C351,45.529,343.471,38,334.216,38H16.784C7.529,38,0,45.529,0,54.783v248.434
			C0,312.471,7.529,320,16.784,320h317.433c9.254,0,16.784-7.529,16.784-16.783V268.5h60.196l23.829,40.783
			c1.395,2.388,3.904,3.718,6.482,3.718c1.285,0,2.587-0.33,3.777-1.025c3.576-2.09,4.782-6.683,2.692-10.259l-26-44.5
			c-1.345-2.302-3.81-3.717-6.476-3.717H351V226h31.238c7.037,0,12.762-5.725,12.762-12.762v-24.477
			c0-7.037-5.725-12.762-12.762-12.762H351v-10h148.238c7.037,0,12.762-5.725,12.762-12.762V128.76
			C512,121.725,506.275,116,499.238,116z M15,54.783C15,53.8,15.8,53,16.784,53h317.433C335.2,53,336,53.8,336,54.783v27.079H15
			V54.783z M497,151H54.5v-20H272c4.142,0,7.5-3.357,7.5-7.5s-3.358-7.5-7.5-7.5H52.262c-7.037,0-12.762,5.725-12.762,12.762v24.477
			c0,7.037,5.725,12.762,12.762,12.762H336v10H52.262c-7.037,0-12.762,5.725-12.762,12.762v24.477
			c0,7.037,5.725,12.762,12.762,12.762H102c4.142,0,7.5-3.357,7.5-7.5s-3.358-7.5-7.5-7.5H54.5v-20H380v20H132
			c-4.142,0-7.5,3.357-7.5,7.5s3.358,7.5,7.5,7.5h204v77.217c0,0.983-0.8,1.783-1.784,1.783H16.784C15.8,305,15,304.2,15,303.217
			V96.862h321V116h-34c-4.142,0-7.5,3.357-7.5,7.5s3.358,7.5,7.5,7.5h195V151z"/>
	</g>
</g>
<g>
	<g>
		<path d="M198.238,235.999H52.262c-7.037,0-12.762,5.725-12.762,12.762v24.477c0,7.037,5.725,12.762,12.762,12.762h145.976
			c7.037,0,12.762-5.725,12.762-12.762v-24.477C211,241.724,205.275,235.999,198.238,235.999z M196,271H54.5v-20H196V271z"/>
	</g>
</g>
<g>
	<g>
		<path d="M489.905,349.309c-10.86-13.364-26.053-22.767-42.781-26.477c-2.219-0.491-4.544,0.049-6.318,1.473
			c-1.773,1.424-2.806,3.575-2.806,5.85v33.523c0,2.965,1.746,5.65,4.456,6.854C453.113,375.267,460,385.852,460,397.5
			c0,7.666-2.935,14.933-8.263,20.461c-2.132,2.212-2.699,5.5-1.433,8.299l13.715,30.289c0.928,2.05,2.729,3.575,4.904,4.154
			c0.636,0.169,1.284,0.252,1.928,0.252c1.561,0,3.101-0.487,4.392-1.42C495.128,445.17,507,421.979,507,397.5
			C507,379.989,500.929,362.874,489.905,349.309z M473.598,441.34l-7.664-16.928C471.812,416.7,475,407.318,475,397.5
			c0-15.889-8.492-30.466-22-38.39v-18.837c23.067,9.124,39,31.856,39,57.227C492,414.043,485.251,429.856,473.598,441.34z"/>
	</g>
</g>
<g>
	<g>
		<path d="M450.115,462.205l-13.959-30.828c-1.18-2.605-3.739-4.313-6.598-4.402C413.544,426.473,401,413.526,401,397.5
			c0-11.648,6.887-22.233,17.544-26.968c2.709-1.204,4.456-3.89,4.456-6.854v-33.523c0-2.274-1.032-4.426-2.806-5.85
			c-1.774-1.423-4.099-1.964-6.318-1.473c-16.728,3.71-31.921,13.113-42.781,26.477C360.071,362.874,354,379.989,354,397.5
			c0,42.183,34.318,76.5,76.5,76.5c4.689,0,9.454-0.447,14.163-1.329c2.264-0.425,4.207-1.865,5.271-3.907
			C450.998,466.721,451.064,464.303,450.115,462.205z M430.5,459c-33.911,0-61.5-27.589-61.5-61.5c0-25.37,15.933-48.103,39-57.227
			v18.837c-13.508,7.924-22,22.501-22,38.39c0,22.556,16.475,41.069,38.303,44.065l7.883,17.41
			C431.623,458.992,431.061,459,430.5,459z"/>
	</g>
</g>
<g>
</g>
<g>
</g>
<g>
</g>
<g>
</g>
<g>
</g>
<g>
</g>
<g>
</g>
<g>
</g>
<g>
</g>
<g>
</g>
<g>
</g>
<g>
</g>
<g>
</g>
<g>
</g>
<g>
</g>
</svg>
