<?xml version="1.0" standalone="no"?><!-- Generator: Gravit.io --><svg xmlns="http://www.w3.org/2000/svg" xmlns:xlink="http://www.w3.org/1999/xlink" style="isolation:isolate" viewBox="0 0 490 490" width="490" height="490"><defs><clipPath id="_clipPath_QOfQnNearQinCYnsjWI38IZvto7t4c0v"><rect width="490" height="490"/></clipPath></defs><g clip-path="url(#_clipPath_QOfQnNearQinCYnsjWI38IZvto7t4c0v)"><g><path d=" M 94.839 405.992 L 248.166 252.658 L 395.161 399.667 L 395.161 490 L 490 490 L 490 395.161 L 412.308 395.161 L 258.992 241.831 L 405.978 94.839 L 490 94.839 L 490 0 L 395.161 0 L 395.161 84.002 L 84.017 395.161 L 0 395.161 L 0 490 L 94.839 490 L 94.839 405.992 Z " fill="rgb(232,232,232)"/><path d=" M 73.839 405.992 L 227.166 252.658 L 374.161 399.667 L 374.161 490 L 469 490 L 469 395.161 L 391.308 395.161 L 237.992 241.831 L 384.978 94.839 L 469 94.839 L 469 0 L 374.161 0 L 374.161 84.002 L 222.335 235.835 L 63.017 395.161 L -21 395.161 L -21 490 L 73.839 490 L 73.839 405.992 Z " fill="rgb(74,134,232)"/></g></g></svg>